<svg width="32" height="32" viewBox="0 0 32 32" fill="none" xmlns="http://www.w3.org/2000/svg">
<path d="M7 8H12V10H7V8ZM7 12H12V14H7V12ZM7 16H12V18H7V16ZM20 8H25V10H20V8ZM20 12H25V14H20V12ZM20 16H25V18H20V16Z" fill="#155EEF"/>
<path d="M28 4H4C3.46973 4.00053 2.96133 4.21141 2.58637 4.58637C2.21141 4.96133 2.00053 5.46973 2 6V28C2.00053 28.5303 2.21141 29.0387 2.58637 29.4136C2.96133 29.7886 3.46973 29.9995 4 30H28C28.5303 29.9995 29.0387 29.7886 29.4136 29.4136C29.7886 29.0387 29.9995 28.5303 30 28V6C29.9995 5.46973 29.7886 4.96133 29.4136 4.58637C29.0387 4.21141 28.5303 4.00053 28 4V4ZM4 6H15V28H4V6ZM17 28V6H28V28H17Z" fill="#155EEF"/>
</svg>
