<svg width="32" height="32" viewBox="0 0 32 32" fill="none" xmlns="http://www.w3.org/2000/svg">
<path d="M6 30H26C26.5304 30 27.0391 29.7893 27.4142 29.4142C27.7893 29.0391 28 28.5304 28 28V22C28 21.4696 27.7893 20.9609 27.4142 20.5858C27.0391 20.2107 26.5304 20 26 20H6C5.46957 20 4.96086 20.2107 4.58579 20.5858C4.21071 20.9609 4 21.4696 4 22V28C4 28.5304 4.21071 29.0391 4.58579 29.4142C4.96086 29.7893 5.46957 30 6 30ZM6 22H26V28H6V22Z" fill="#155EEF"/>
<path d="M9 26C9.55228 26 10 25.5523 10 25C10 24.4477 9.55228 24 9 24C8.44772 24 8 24.4477 8 25C8 25.5523 8.44772 26 9 26Z" fill="#155EEF"/>
<path d="M26 1.99994L24.59 3.40994L27.17 5.99994H22.315C21.6052 4.47687 20.3701 3.26076 18.8363 2.57466C17.3024 1.88856 15.5726 1.77848 13.9641 2.2646C12.3556 2.75073 10.9764 3.80047 10.0793 5.22128C9.18215 6.64209 8.82737 8.33871 9.08 9.99994H4.83L7.41 7.40994L6 5.99994L1 10.9999L6 15.9999L7.41 14.5899L4.83 11.9999H9.685C10.3948 13.523 11.6299 14.7391 13.1637 15.4252C14.6976 16.1113 16.4274 16.2214 18.0359 15.7353C19.6444 15.2491 21.0236 14.1994 21.9207 12.7786C22.8178 11.3578 23.1726 9.66117 22.92 7.99994H27.17L24.59 10.5899L26 11.9999L31 6.99994L26 1.99994ZM21 8.99994C21.0037 10.0481 20.6768 11.0707 20.0658 11.9224C19.4548 12.774 18.5908 13.4113 17.5967 13.7436C16.6026 14.0759 15.5291 14.0863 14.5288 13.7732C13.5284 13.4602 12.6523 12.8397 12.025 11.9999H16V9.99994H11.101C10.8701 8.88934 11.0248 7.73319 11.5397 6.72242C12.0545 5.71164 12.8988 4.9067 13.9329 4.44051C14.967 3.97431 16.1292 3.87476 17.2276 4.15829C18.3259 4.44181 19.2947 5.09146 19.974 5.99994H16V7.99994H20.899C20.9662 8.32904 21 8.66406 21 8.99994Z" fill="#155EEF"/>
</svg>
