<svg width="42" height="42" viewBox="0 0 42 42" fill="none" xmlns="http://www.w3.org/2000/svg">
<path d="M17.8504 4.19995C17.1987 4.19961 16.563 4.4014 16.0308 4.77751C15.4986 5.15362 15.0961 5.68554 14.8789 6.29995H11.5504C10.715 6.29995 9.91374 6.63183 9.323 7.22257C8.73226 7.8133 8.40039 8.61452 8.40039 9.44995V34.65C8.40039 35.4854 8.73226 36.2866 9.323 36.8773C9.91374 37.4681 10.715 37.7999 11.5504 37.7999H30.4504C31.2858 37.7999 32.087 37.4681 32.6778 36.8773C33.2685 36.2866 33.6004 35.4854 33.6004 34.65V9.44995C33.6004 8.61452 33.2685 7.8133 32.6778 7.22257C32.087 6.63183 31.2858 6.29995 30.4504 6.29995H27.1219C26.9047 5.68554 26.5022 5.15362 25.97 4.77751C25.4378 4.4014 24.8021 4.19961 24.1504 4.19995H17.8504ZM16.8004 7.34995C16.8004 7.07147 16.911 6.8044 17.1079 6.60749C17.3048 6.41058 17.5719 6.29995 17.8504 6.29995H24.1504C24.4289 6.29995 24.6959 6.41058 24.8929 6.60749C25.0898 6.8044 25.2004 7.07147 25.2004 7.34995C25.2004 7.62843 25.0898 7.8955 24.8929 8.09241C24.6959 8.28933 24.4289 8.39995 24.1504 8.39995H17.8504C17.5719 8.39995 17.3048 8.28933 17.1079 8.09241C16.911 7.8955 16.8004 7.62843 16.8004 7.34995ZM27.3004 25.2V30.4499C27.3004 30.7284 27.1898 30.9955 26.9929 31.1924C26.7959 31.3893 26.5289 31.5 26.2504 31.5C25.9719 31.5 25.7048 31.3893 25.5079 31.1924C25.311 30.9955 25.2004 30.7284 25.2004 30.4499V25.2C25.2004 24.9215 25.311 24.6544 25.5079 24.4575C25.7048 24.2606 25.9719 24.15 26.2504 24.15C26.5289 24.15 26.7959 24.2606 26.9929 24.4575C27.1898 24.6544 27.3004 24.9215 27.3004 25.2ZM21.0004 18.9C21.2789 18.9 21.5459 19.0106 21.7429 19.2075C21.9398 19.4044 22.0504 19.6715 22.0504 19.95V30.4499C22.0504 30.7284 21.9398 30.9955 21.7429 31.1924C21.5459 31.3893 21.2789 31.5 21.0004 31.5C20.7219 31.5 20.4548 31.3893 20.2579 31.1924C20.061 30.9955 19.9504 30.7284 19.9504 30.4499V19.95C19.9504 19.6715 20.061 19.4044 20.2579 19.2075C20.4548 19.0106 20.7219 18.9 21.0004 18.9ZM16.8004 15.75V30.4499C16.8004 30.7284 16.6898 30.9955 16.4929 31.1924C16.2959 31.3893 16.0289 31.5 15.7504 31.5C15.4719 31.5 15.2048 31.3893 15.0079 31.1924C14.811 30.9955 14.7004 30.7284 14.7004 30.4499V15.75C14.7004 15.4715 14.811 15.2044 15.0079 15.0075C15.2048 14.8106 15.4719 14.7 15.7504 14.7C16.0289 14.7 16.2959 14.8106 16.4929 15.0075C16.6898 15.2044 16.8004 15.4715 16.8004 15.75Z" fill="#155EEF"/>
</svg>
