<svg width="42" height="42" viewBox="0 0 42 42" fill="none" xmlns="http://www.w3.org/2000/svg">
<path d="M8.40039 8.39995C8.40039 7.28604 8.84289 6.21776 9.63054 5.4301C10.4182 4.64245 11.4865 4.19995 12.6004 4.19995H29.4004C30.5143 4.19995 31.5826 4.64245 32.3702 5.4301C33.1579 6.21776 33.6004 7.28604 33.6004 8.39995V31.5C33.6004 32.0569 33.3791 32.591 32.9853 32.9849C32.5915 33.3787 32.0573 33.5999 31.5004 33.5999H10.5004C10.5004 34.1569 10.7216 34.691 11.1155 35.0849C11.5093 35.4787 12.0434 35.6999 12.6004 35.6999H32.5504C32.8289 35.6999 33.0959 35.8106 33.2929 36.0075C33.4898 36.2044 33.6004 36.4715 33.6004 36.75C33.6004 37.0284 33.4898 37.2955 33.2929 37.4924C33.0959 37.6893 32.8289 37.7999 32.5504 37.7999H12.6004C11.4865 37.7999 10.4182 37.3574 9.63054 36.5698C8.84289 35.7821 8.40039 34.7139 8.40039 33.5999V8.39995ZM17.8147 13.3245C17.065 13.7592 16.8004 14.2527 16.8004 14.7C16.8004 15.1473 17.065 15.6408 17.8147 16.0755C18.5665 16.5123 19.6858 16.8 21.0004 16.8C22.315 16.8 23.4343 16.5123 24.1861 16.0755C24.9358 15.6408 25.2004 15.1473 25.2004 14.7C25.2004 14.2527 24.9358 13.7592 24.1861 13.3245C23.4343 12.8877 22.315 12.6 21.0004 12.6C19.6858 12.6 18.5665 12.8877 17.8147 13.3245ZM16.7605 11.508C15.6118 12.1758 14.7004 13.2573 14.7004 14.7V23.1C14.7004 24.4167 15.6496 25.4834 16.7332 26.1576C17.863 26.859 19.3708 27.2999 21.0004 27.2999C22.63 27.2999 24.1378 26.859 25.2676 26.1576C26.3512 25.4856 27.3004 24.4167 27.3004 23.1V14.7C27.3004 13.2573 26.389 12.1758 25.2403 11.508C24.0916 10.8423 22.5859 10.5 21.0004 10.5C19.4149 10.5 17.9092 10.8423 16.7605 11.508ZM25.2004 23.1V17.9129C24.058 18.5639 22.567 18.9 21.0004 18.9C19.4317 18.9 17.9428 18.5639 16.8004 17.9129V23.1C16.8004 23.3582 17.0251 23.8665 17.842 24.3747C18.6127 24.8535 19.732 25.2 21.0004 25.2C22.2688 25.2 23.3881 24.8535 24.1588 24.3747C24.9757 23.8665 25.2004 23.3582 25.2004 23.1Z" fill="#155EEF"/>
</svg>
