<svg width="42" height="42" viewBox="0 0 42 42" fill="none" xmlns="http://www.w3.org/2000/svg">
<path d="M11.5508 35.7H21.0008V31.5C21.0008 30.7628 21.1949 30.0386 21.5635 29.4001C21.9321 28.7616 22.4623 28.2314 23.1008 27.8628C23.7393 27.4942 24.4636 27.3001 25.2008 27.3002C25.9381 27.3002 26.6623 27.4942 27.3008 27.8628V23.1C27.3008 21.9861 27.7433 20.9179 28.5309 20.1302C29.3186 19.3425 30.3869 18.9 31.5008 18.9C32.6147 18.9 33.683 19.3425 34.4706 20.1302C35.2583 20.9179 35.7008 21.9861 35.7008 23.1V14.7H6.30078V30.45C6.30078 31.8424 6.8539 33.1778 7.83847 34.1624C8.82304 35.1469 10.1584 35.7 11.5508 35.7ZM30.4508 6.30005C31.8432 6.30005 33.1785 6.85317 34.1631 7.83774C35.1477 8.8223 35.7008 10.1577 35.7008 11.55V12.6H6.30078V11.55C6.30078 10.1577 6.8539 8.8223 7.83847 7.83774C8.82304 6.85317 10.1584 6.30005 11.5508 6.30005H30.4508ZM31.5008 21C30.9438 21 30.4097 21.2213 30.0159 21.6151C29.622 22.009 29.4008 22.5431 29.4008 23.1V37.8C29.4008 38.357 29.622 38.8911 30.0159 39.285C30.4097 39.6788 30.9438 39.9 31.5008 39.9C32.0577 39.9 32.5919 39.6788 32.9857 39.285C33.3795 38.8911 33.6008 38.357 33.6008 37.8V23.1C33.6008 22.5431 33.3795 22.009 32.9857 21.6151C32.5919 21.2213 32.0577 21 31.5008 21ZM25.2008 29.4C24.6438 29.4 24.1097 29.6213 23.7159 30.0151C23.322 30.409 23.1008 30.9431 23.1008 31.5V37.8C23.1008 38.357 23.322 38.8911 23.7159 39.285C24.1097 39.6788 24.6438 39.9 25.2008 39.9C25.7577 39.9 26.2919 39.6788 26.6857 39.285C27.0795 38.8911 27.3008 38.357 27.3008 37.8V31.5C27.3008 30.9431 27.0795 30.409 26.6857 30.0151C26.2919 29.6213 25.7577 29.4 25.2008 29.4ZM35.7008 27.3C35.7008 26.7431 35.922 26.209 36.3159 25.8151C36.7097 25.4213 37.2438 25.2 37.8008 25.2C38.3577 25.2 38.8919 25.4213 39.2857 25.8151C39.6795 26.209 39.9008 26.7431 39.9008 27.3V37.8C39.9008 38.357 39.6795 38.8911 39.2857 39.285C38.8919 39.6788 38.3577 39.9 37.8008 39.9C37.2438 39.9 36.7097 39.6788 36.3159 39.285C35.922 38.8911 35.7008 38.357 35.7008 37.8V27.3Z" fill="#155EEF"/>
</svg>
