<svg width="134" height="29" viewBox="0 0 134 29" fill="none" xmlns="http://www.w3.org/2000/svg">
<path d="M4.88965 26H12.668C13.8398 26 14.8945 25.8682 15.832 25.6045C16.7695 25.3408 17.5654 24.9453 18.2197 24.418C18.874 23.8906 19.377 23.2363 19.7285 22.4551C20.0801 21.6738 20.2559 20.7705 20.2559 19.7451C20.2559 19.208 20.1826 18.6904 20.0361 18.1924C19.8994 17.6846 19.6846 17.2158 19.3916 16.7861C19.1084 16.3857 18.7568 16.0342 18.3369 15.7314C17.9268 15.4287 17.3701 15.1797 16.667 14.9844V14.9697C17.0283 14.833 17.3555 14.667 17.6484 14.4717C17.9512 14.2764 18.2197 14.0615 18.4541 13.8271C18.8838 13.3975 19.2061 12.8994 19.4209 12.333C19.6455 11.7568 19.7627 11.1465 19.7725 10.502C19.7725 9.50586 19.5869 8.6416 19.2158 7.90918C18.8545 7.17676 18.3369 6.57129 17.6631 6.09277C16.9893 5.61426 16.1738 5.25781 15.2168 5.02344C14.2695 4.78906 13.2148 4.67188 12.0527 4.67188H4.88965V26ZM9.02051 16.5957H12.8584C13.4346 16.6055 13.9326 16.6836 14.3525 16.8301C14.7725 16.9766 15.1143 17.1865 15.3779 17.46C15.6416 17.7236 15.832 18.0459 15.9492 18.4268C16.0762 18.8076 16.1396 19.2373 16.1396 19.7158C16.1396 20.1748 16.0566 20.5898 15.8906 20.9609C15.7344 21.332 15.5 21.6494 15.1875 21.9131C14.9043 22.1475 14.5479 22.333 14.1182 22.4697C13.6982 22.6064 13.2197 22.6748 12.6826 22.6748H9.02051V16.5957ZM9.02051 13.6221V8.02637H12.0674C12.7314 8.03613 13.3076 8.10938 13.7959 8.24609C14.2939 8.38281 14.6895 8.60254 14.9824 8.90527C15.207 9.12012 15.373 9.38867 15.4805 9.71094C15.5977 10.0332 15.6562 10.4092 15.6562 10.8389C15.6562 11.249 15.5879 11.6152 15.4512 11.9375C15.3242 12.2598 15.1387 12.5332 14.8945 12.7578C14.6016 13.041 14.2158 13.2559 13.7373 13.4023C13.2588 13.5391 12.707 13.6123 12.082 13.6221H9.02051ZM24.0826 3.5V6.8252H28.8287V22.6895H24.0826V26H37.4859V22.6895H32.9449V3.5H24.0826ZM51.7424 26H55.4338V10.1504H51.3469V21.2686C51.2199 21.5225 51.0686 21.752 50.8928 21.957C50.717 22.1621 50.5168 22.3379 50.2922 22.4844C50.0285 22.6504 49.7209 22.7773 49.3693 22.8652C49.0275 22.9531 48.6418 22.9971 48.2121 22.9971C47.7336 22.9971 47.3283 22.9385 46.9963 22.8213C46.6643 22.7041 46.3957 22.5088 46.1906 22.2354C45.9855 21.9717 45.8342 21.6201 45.7365 21.1807C45.6486 20.7412 45.6047 20.1992 45.6047 19.5547V10.1504H41.5324V19.5254C41.5324 20.7266 41.6643 21.7568 41.9279 22.6162C42.2014 23.4658 42.5822 24.1641 43.0705 24.7109C43.5588 25.2676 44.1447 25.6729 44.8283 25.9268C45.5119 26.1807 46.2639 26.3076 47.0842 26.3076C47.9826 26.3076 48.8078 26.083 49.5598 25.6338C50.3215 25.1846 50.9709 24.5645 51.508 23.7734L51.7424 26ZM67.2586 26.293C68.7918 26.293 70.1199 25.9951 71.243 25.3994C72.366 24.8037 73.1863 24.1396 73.7039 23.4072L71.6678 21.21C71.199 21.8154 70.5887 22.2695 69.8367 22.5723C69.0848 22.875 68.3084 23.0264 67.5076 23.0264C66.9412 23.0264 66.4188 22.9385 65.9402 22.7627C65.4617 22.5869 65.0369 22.3379 64.6658 22.0156C64.3045 21.7031 64.0164 21.3564 63.8016 20.9756C63.5867 20.585 63.4109 20.0723 63.2742 19.4375V19.3936H74.0262V17.665C74.0262 16.5029 73.865 15.4434 73.5428 14.4863C73.2205 13.5195 72.7518 12.6943 72.1365 12.0107C71.5115 11.3271 70.7498 10.7998 69.8514 10.4287C68.9627 10.0479 67.9471 9.85742 66.8045 9.85742C65.701 9.85742 64.6805 10.0576 63.743 10.458C62.8055 10.8584 61.9949 11.4199 61.3113 12.1426C60.6277 12.8652 60.0955 13.7295 59.7146 14.7354C59.3338 15.7314 59.1434 16.835 59.1434 18.0459V18.6318C59.1434 19.6963 59.3338 20.6973 59.7146 21.6348C60.1053 22.5625 60.657 23.3682 61.3699 24.0518C62.0828 24.7451 62.9373 25.292 63.9334 25.6924C64.9295 26.0928 66.0379 26.293 67.2586 26.293ZM66.7752 13.1533C67.2928 13.1533 67.7469 13.2363 68.1375 13.4023C68.5379 13.5586 68.8748 13.7734 69.1482 14.0469C69.4217 14.3301 69.6365 14.6621 69.7928 15.043C69.949 15.4238 70.0271 15.8291 70.0271 16.2588V16.5811H63.3475C63.4451 16.0635 63.5916 15.5947 63.7869 15.1748C63.9822 14.7549 64.2264 14.3936 64.5193 14.0908C64.8025 13.7881 65.1346 13.5586 65.5154 13.4023C65.8963 13.2363 66.3162 13.1533 66.7752 13.1533ZM92.4721 16.9033V13.7979C92.4721 12.8311 92.3793 11.918 92.1937 11.0586C92.018 10.1992 91.7592 9.4082 91.4174 8.68555C91.1049 8.05078 90.7289 7.46973 90.2895 6.94238C89.8598 6.41504 89.3568 5.96582 88.7807 5.59473C88.2045 5.2041 87.5551 4.90625 86.8324 4.70117C86.1195 4.48633 85.3529 4.37891 84.5326 4.37891C83.7221 4.37891 82.9701 4.48145 82.2768 4.68652C81.5834 4.8916 80.9584 5.18457 80.4018 5.56543C79.8354 5.95605 79.3324 6.4248 78.893 6.97168C78.4633 7.51855 78.0971 8.12891 77.7943 8.80273C77.4818 9.51562 77.2426 10.292 77.0766 11.1318C76.9203 11.9717 76.8422 12.8604 76.8422 13.7979V16.9033C76.8422 17.7822 76.9105 18.6172 77.0473 19.4082C77.1937 20.1992 77.4037 20.9316 77.6771 21.6055C77.9799 22.3379 78.3559 22.9971 78.8051 23.583C79.2543 24.1592 79.7621 24.6523 80.3285 25.0625C80.9047 25.4531 81.5443 25.7559 82.2475 25.9707C82.9506 26.1855 83.7172 26.293 84.5473 26.293C85.3285 26.293 86.0561 26.1953 86.7299 26C87.4135 25.8145 88.0385 25.5508 88.6049 25.209C89.2299 24.8184 89.7865 24.3301 90.2748 23.7441C90.7631 23.1582 91.1732 22.5137 91.5053 21.8105C91.8178 21.1074 92.057 20.3457 92.223 19.5254C92.3891 18.6953 92.4721 17.8213 92.4721 16.9033ZM88.2973 13.7686V16.9033C88.2973 17.4307 88.268 17.9385 88.2094 18.4268C88.1605 18.915 88.0824 19.3643 87.975 19.7744C87.8383 20.3018 87.6527 20.7754 87.4184 21.1953C87.1937 21.6055 86.9154 21.9473 86.5834 22.2207C86.3197 22.4453 86.017 22.6162 85.6752 22.7334C85.3334 22.8506 84.9574 22.9092 84.5473 22.9092C84.1176 22.9092 83.7318 22.8457 83.39 22.7188C83.058 22.5918 82.7602 22.4111 82.4965 22.1768C82.2133 21.9131 81.9643 21.5713 81.7494 21.1514C81.5443 20.7217 81.3881 20.248 81.2807 19.7305C81.183 19.3203 81.1146 18.876 81.0756 18.3975C81.0365 17.9189 81.017 17.4209 81.017 16.9033V13.7686C81.017 13.2217 81.0365 12.6992 81.0756 12.2012C81.1244 11.7031 81.1977 11.2441 81.2953 10.8242C81.4223 10.2773 81.598 9.79883 81.8227 9.38867C82.057 8.97852 82.3402 8.63672 82.6723 8.36328C82.9164 8.17773 83.1898 8.03613 83.4926 7.93848C83.8051 7.84082 84.1518 7.79199 84.5326 7.79199C84.933 7.79199 85.2943 7.8457 85.6166 7.95312C85.9486 8.06055 86.2465 8.21191 86.5102 8.40723C86.8422 8.6709 87.1303 9.0127 87.3744 9.43262C87.6186 9.84277 87.8139 10.3115 87.9604 10.8389C88.0775 11.2588 88.1605 11.7178 88.2094 12.2158C88.268 12.7041 88.2973 13.2217 88.2973 13.7686ZM95.9033 26H99.9902V14.7354C100.127 14.5205 100.278 14.3252 100.444 14.1494C100.61 13.9736 100.796 13.8223 101.001 13.6953C101.255 13.5195 101.543 13.3877 101.865 13.2998C102.197 13.2119 102.559 13.168 102.949 13.168C103.418 13.168 103.838 13.2168 104.209 13.3145C104.58 13.4023 104.897 13.5635 105.161 13.7979C105.425 14.0322 105.625 14.3545 105.762 14.7646C105.908 15.165 105.981 15.6777 105.981 16.3027V26H110.054V16.2441C110.054 15.0918 109.917 14.1152 109.644 13.3145C109.38 12.5039 109.009 11.8398 108.53 11.3223C108.042 10.8145 107.466 10.4434 106.802 10.209C106.138 9.97461 105.405 9.85742 104.604 9.85742C103.979 9.85742 103.389 9.94531 102.832 10.1211C102.275 10.2969 101.763 10.5508 101.294 10.8828C101.021 11.0781 100.762 11.2979 100.518 11.542C100.273 11.7861 100.049 12.0547 99.8438 12.3477L99.5947 10.1504H95.9033V26ZM121.761 26.293C123.295 26.293 124.623 25.9951 125.746 25.3994C126.869 24.8037 127.689 24.1396 128.207 23.4072L126.171 21.21C125.702 21.8154 125.091 22.2695 124.339 22.5723C123.588 22.875 122.811 23.0264 122.01 23.0264C121.444 23.0264 120.921 22.9385 120.443 22.7627C119.964 22.5869 119.54 22.3379 119.169 22.0156C118.807 21.7031 118.519 21.3564 118.304 20.9756C118.089 20.585 117.914 20.0723 117.777 19.4375V19.3936H128.529V17.665C128.529 16.5029 128.368 15.4434 128.046 14.4863C127.723 13.5195 127.254 12.6943 126.639 12.0107C126.014 11.3271 125.253 10.7998 124.354 10.4287C123.465 10.0479 122.45 9.85742 121.307 9.85742C120.204 9.85742 119.183 10.0576 118.246 10.458C117.308 10.8584 116.498 11.4199 115.814 12.1426C115.13 12.8652 114.598 13.7295 114.217 14.7354C113.837 15.7314 113.646 16.835 113.646 18.0459V18.6318C113.646 19.6963 113.837 20.6973 114.217 21.6348C114.608 22.5625 115.16 23.3682 115.873 24.0518C116.586 24.7451 117.44 25.292 118.436 25.6924C119.432 26.0928 120.541 26.293 121.761 26.293ZM121.278 13.1533C121.796 13.1533 122.25 13.2363 122.64 13.4023C123.041 13.5586 123.378 13.7734 123.651 14.0469C123.924 14.3301 124.139 14.6621 124.296 15.043C124.452 15.4238 124.53 15.8291 124.53 16.2588V16.5811H117.85C117.948 16.0635 118.094 15.5947 118.29 15.1748C118.485 14.7549 118.729 14.3936 119.022 14.0908C119.305 13.7881 119.637 13.5586 120.018 13.4023C120.399 13.2363 120.819 13.1533 121.278 13.1533Z" fill="white"/>
</svg>
